<?xml version="1.0" encoding="utf-8"?>
<svg xmlns="http://www.w3.org/2000/svg" viewBox="39.2638 33.019 940.6755 433.962" width="940.676px" height="433.962px">
    <path d="M 238.753 442.833 C 216.23 428.155 199.854 401.771 203.205 375.097 C 223.486 396.154 250.561 409.359 279.64 412.375 C 290.859 413.497 303.454 413.578 311.421 421.556 C 316.378 426.52 318.485 433.775 318.593 440.79 C 318.701 447.805 317.016 454.709 315.341 461.522 L 315.753 463.224 C 288.887 462.231 261.276 457.511 238.753 442.833 Z" fill="#f0f0f0" transform="matrix(1, 0, 0, 1, -1.1368683772161603e-13, 0)"/>
    <path d="M 203.769 375.092 C 212.195 395.687 226.895 413.104 245.783 424.869 C 249.804 427.474 254.21 429.428 258.84 430.661 C 263.389 431.716 268.137 431.534 272.592 430.133 C 276.771 428.911 280.905 427.176 285.309 426.991 C 289.872 426.867 294.27 428.696 297.4 432.018 C 301.361 436.011 303.652 441.189 305.716 446.331 C 308.008 452.039 310.298 458.005 314.966 462.234 C 315.531 462.746 314.703 463.593 314.139 463.082 C 306.018 455.725 305.124 443.923 298.741 435.388 C 295.762 431.406 291.565 428.297 286.435 428.166 C 281.948 428.051 277.684 429.836 273.462 431.11 C 269.137 432.54 264.527 432.89 260.035 432.127 C 255.358 431.134 250.883 429.353 246.803 426.858 C 237.529 421.39 229.172 414.497 222.038 406.432 C 213.846 397.273 207.281 386.78 202.627 375.407 C 202.339 374.703 203.483 374.392 203.769 375.092 L 203.769 375.092 Z" fill="#fff" transform="matrix(1, 0, 0, 1, -1.1368683772161603e-13, 0)"/>
    <path d="M 239.478 421.438 C 234.513 427.43 225.938 428.942 219.223 425.01 C 218.566 424.623 219.137 423.585 219.795 423.973 C 226.043 427.647 234.037 426.22 238.63 420.611 C 239.113 420.022 239.959 420.852 239.478 421.438 L 239.478 421.438 Z" fill="#fff" transform="matrix(1, 0, 0, 1, -1.1368683772161603e-13, 0)"/>
    <path d="M 270.554 431.032 C 269.905 423.358 266.386 416.21 260.701 411.015 C 260.137 410.5 260.965 409.653 261.528 410.166 C 267.434 415.584 271.081 423.03 271.739 431.017 C 271.801 431.779 270.616 431.789 270.554 431.032 L 270.554 431.032 Z" fill="#fff" transform="matrix(1, 0, 0, 1, -1.1368683772161603e-13, 0)"/>
    <path d="M 215.337 396.777 C 217.701 394.89 218.959 391.941 218.684 388.929 C 218.612 388.169 219.797 388.159 219.868 388.914 C 220.157 392.242 218.778 395.497 216.185 397.604 C 215.952 397.828 215.586 397.832 215.347 397.614 C 215.115 397.385 215.11 397.012 215.337 396.777 L 215.337 396.777 Z" fill="#fff" transform="matrix(1, 0, 0, 1, -1.1368683772161603e-13, 0)"/>
    <path d="M 280.033 326.285 C 280.091 326.759 280.15 327.232 280.217 327.71 C 281.034 334.071 282.367 340.355 284.203 346.499 C 284.337 346.977 284.48 347.458 284.628 347.931 C 289.208 362.688 296.487 376.466 306.096 388.566 C 309.924 393.377 314.113 397.89 318.626 402.066 C 324.859 407.833 332.076 413.589 335.926 420.864 C 336.336 421.618 336.699 422.397 337.013 423.197 L 317.798 462.59 C 317.709 462.657 317.629 462.73 317.54 462.798 L 316.845 464.406 C 316.597 464.207 316.344 463.995 316.097 463.796 C 315.952 463.681 315.812 463.557 315.668 463.442 C 315.573 463.363 315.479 463.283 315.389 463.217 C 315.357 463.191 315.326 463.164 315.303 463.142 C 315.213 463.076 315.136 463.005 315.055 462.943 C 313.639 461.763 312.229 460.571 310.825 459.366 C 310.816 459.362 310.816 459.362 310.811 459.349 C 300.135 450.146 290.133 439.972 281.994 428.602 C 281.749 428.26 281.495 427.914 281.259 427.554 C 277.619 422.409 274.405 416.975 271.65 411.306 C 270.151 408.197 268.811 405.015 267.634 401.77 C 264.609 393.381 262.923 384.569 262.637 375.656 C 262.069 357.889 267.19 340.137 279.112 327.26 C 279.418 326.931 279.719 326.61 280.033 326.285 Z" fill="#f0f0f0" transform="matrix(1, 0, 0, 1, -1.1368683772161603e-13, 0)"/>
    <path d="M 280.49 326.618 C 274.817 348.134 276.068 370.892 284.066 391.657 C 285.708 396.158 288.049 400.371 291.004 404.143 C 294.001 407.724 297.902 410.438 302.302 412.001 C 306.375 413.541 310.72 414.645 314.348 417.149 C 318.065 419.797 320.476 423.905 320.975 428.442 C 321.734 434.015 320.445 439.529 318.998 444.877 C 317.391 450.815 315.627 456.957 316.808 463.144 C 316.951 463.893 315.78 464.071 315.637 463.323 C 313.582 452.56 319.974 442.598 320.016 431.94 C 320.035 426.967 318.556 421.958 314.539 418.764 C 311.026 415.971 306.546 414.829 302.408 413.305 C 298.094 411.843 294.203 409.346 291.075 406.034 C 287.938 402.424 285.438 398.308 283.683 393.86 C 279.57 383.91 277.047 373.374 276.207 362.64 C 275.181 350.395 276.256 338.064 279.388 326.181 C 279.582 325.446 280.682 325.887 280.49 326.618 L 280.49 326.618 Z" fill="#fff" transform="matrix(1, 0, 0, 1, -1.1368683772161603e-13, 0)"/>
    <path d="M 281.097 385.122 C 273.525 386.916 265.768 382.961 262.773 375.779 C 262.482 375.074 263.564 374.589 263.855 375.295 C 266.632 381.99 273.874 385.664 280.917 383.951 C 281.658 383.771 281.834 384.944 281.097 385.122 L 281.097 385.122 Z" fill="#fff" transform="matrix(1, 0, 0, 1, -1.1368683772161603e-13, 0)"/>
    <path d="M 300.133 411.492 C 304.235 404.973 305.729 397.148 304.318 389.577 C 304.178 388.827 305.349 388.648 305.489 389.398 C 306.943 397.279 305.372 405.419 301.088 412.193 C 300.68 412.839 299.727 412.134 300.133 411.492 Z" fill="#fff" transform="matrix(1, 0, 0, 1, -1.1368683772161603e-13, 0)"/>
    <path d="M 276.67 350.896 C 279.693 350.814 282.473 349.217 284.067 346.646 C 284.467 345.995 285.419 346.701 285.022 347.347 C 283.248 350.178 280.187 351.946 276.849 352.068 C 276.528 352.106 276.233 351.889 276.174 351.572 C 276.126 351.249 276.347 350.947 276.67 350.896 L 276.67 350.896 Z" fill="#fff" transform="matrix(1, 0, 0, 1, -1.1368683772161603e-13, 0)"/>
    <path d="M 926.1 442.833 C 948.623 428.155 965 401.771 961.648 375.097 C 941.368 396.154 914.293 409.359 885.213 412.375 C 873.995 413.497 861.4 413.578 853.433 421.556 C 848.475 426.52 846.369 433.775 846.26 440.79 C 846.152 447.805 847.838 454.709 849.512 461.522 L 849.101 463.224 C 875.966 462.231 903.577 457.511 926.1 442.833 Z" fill="#f0f0f0" transform="matrix(1, 0, 0, 1, -1.1368683772161603e-13, 0)"/>
    <path d="M 961.084 375.092 C 952.659 395.687 937.958 413.104 919.071 424.869 C 915.05 427.474 910.643 429.428 906.013 430.661 C 901.464 431.716 896.716 431.534 892.262 430.133 C 888.082 428.911 883.948 427.176 879.544 426.991 C 874.982 426.867 870.583 428.696 867.454 432.018 C 863.492 436.011 861.201 441.189 859.137 446.331 C 856.845 452.039 854.555 458.005 849.888 462.234 C 849.322 462.746 850.15 463.593 850.715 463.082 C 858.836 455.725 859.729 443.923 866.113 435.388 C 869.091 431.406 873.288 428.297 878.419 428.166 C 882.905 428.051 887.17 429.836 891.391 431.11 C 895.717 432.54 900.326 432.89 904.818 432.127 C 909.496 431.134 913.97 429.353 918.05 426.858 C 927.325 421.39 935.682 414.497 942.815 406.432 C 951.007 397.273 957.572 386.78 962.226 375.407 C 962.514 374.703 961.37 374.392 961.084 375.092 L 961.084 375.092 Z" fill="#fff" transform="matrix(1, 0, 0, 1, -1.1368683772161603e-13, 0)"/>
    <path d="M 925.375 421.438 C 930.341 427.43 938.916 428.942 945.631 425.01 C 946.287 424.623 945.716 423.585 945.059 423.973 C 938.81 427.647 930.816 426.22 926.224 420.611 C 925.74 420.022 924.895 420.852 925.375 421.438 L 925.375 421.438 Z" fill="#fff" transform="matrix(1, 0, 0, 1, -1.1368683772161603e-13, 0)"/>
    <path d="M 894.299 431.032 C 894.949 423.358 898.467 416.21 904.152 411.015 C 904.716 410.5 903.888 409.653 903.325 410.166 C 897.419 415.584 893.773 423.03 893.114 431.017 C 893.052 431.779 894.237 431.789 894.299 431.032 L 894.299 431.032 Z" fill="#fff" transform="matrix(1, 0, 0, 1, -1.1368683772161603e-13, 0)"/>
    <path d="M 949.517 396.777 C 947.152 394.89 945.894 391.941 946.17 388.929 C 946.242 388.169 945.056 388.159 944.985 388.914 C 944.696 392.242 946.076 395.497 948.668 397.604 C 948.901 397.828 949.268 397.832 949.506 397.614 C 949.739 397.385 949.743 397.012 949.517 396.777 L 949.517 396.777 Z" fill="#fff" transform="matrix(1, 0, 0, 1, -1.1368683772161603e-13, 0)"/>
    <path d="M 884.821 326.285 C 884.762 326.759 884.704 327.232 884.637 327.71 C 883.819 334.071 882.486 340.355 880.651 346.499 C 880.516 346.977 880.373 347.458 880.225 347.931 C 875.646 362.688 868.366 376.466 858.757 388.566 C 854.929 393.377 850.74 397.89 846.227 402.066 C 839.995 407.833 832.778 413.589 828.927 420.864 C 828.517 421.618 828.154 422.397 827.84 423.197 L 847.056 462.59 C 847.145 462.657 847.224 462.73 847.313 462.798 L 848.009 464.406 C 848.256 464.207 848.509 463.995 848.757 463.796 C 848.901 463.681 849.041 463.557 849.185 463.442 C 849.28 463.363 849.375 463.283 849.465 463.217 C 849.496 463.191 849.528 463.164 849.55 463.142 C 849.641 463.076 849.717 463.005 849.798 462.943 C 851.214 461.763 852.624 460.571 854.028 459.366 C 854.037 459.362 854.037 459.362 854.042 459.349 C 864.718 450.146 874.72 439.972 882.86 428.602 C 883.104 428.26 883.358 427.914 883.594 427.554 C 887.235 422.409 890.449 416.975 893.204 411.306 C 894.702 408.197 896.043 405.015 897.22 401.77 C 900.244 393.381 901.93 384.569 902.217 375.656 C 902.784 357.888 897.663 340.137 885.741 327.26 C 885.436 326.931 885.135 326.61 884.821 326.285 Z" fill="#f0f0f0" transform="matrix(1, 0, 0, 1, -1.1368683772161603e-13, 0)"/>
    <path d="M 884.364 326.618 C 890.036 348.134 888.785 370.892 880.788 391.657 C 879.146 396.158 876.804 400.371 873.85 404.143 C 870.853 407.724 866.952 410.438 862.552 412.001 C 858.478 413.541 854.134 414.645 850.506 417.149 C 846.788 419.797 844.377 423.905 843.879 428.442 C 843.12 434.015 844.408 439.529 845.856 444.877 C 847.463 450.815 849.226 456.957 848.045 463.144 C 847.902 463.893 849.073 464.071 849.216 463.323 C 851.271 452.56 844.879 442.598 844.837 431.94 C 844.818 426.967 846.297 421.958 850.315 418.764 C 853.828 415.971 858.307 414.829 862.445 413.305 C 866.76 411.843 870.651 409.346 873.778 406.034 C 876.915 402.424 879.415 398.308 881.171 393.86 C 885.283 383.91 887.806 373.374 888.646 362.64 C 889.673 350.395 888.597 338.064 885.466 326.181 C 885.271 325.446 884.171 325.887 884.364 326.618 L 884.364 326.618 Z" fill="#fff" transform="matrix(1, 0, 0, 1, -1.1368683772161603e-13, 0)"/>
    <path d="M 883.757 385.122 C 891.328 386.916 899.085 382.961 902.08 375.779 C 902.371 375.074 901.29 374.589 900.998 375.295 C 898.221 381.99 890.979 385.664 883.936 383.951 C 883.195 383.771 883.02 384.944 883.757 385.122 L 883.757 385.122 Z" fill="#fff" transform="matrix(1, 0, 0, 1, -1.1368683772161603e-13, 0)"/>
    <path d="M 864.72 411.492 C 860.618 404.973 859.124 397.148 860.535 389.577 C 860.676 388.827 859.504 388.648 859.364 389.398 C 857.91 397.279 859.482 405.419 863.765 412.193 C 864.174 412.839 865.126 412.134 864.72 411.492 L 864.72 411.492 Z" fill="#fff" transform="matrix(1, 0, 0, 1, -1.1368683772161603e-13, 0)"/>
    <path d="M 888.184 350.896 C 885.16 350.814 882.38 349.217 880.787 346.646 C 880.386 345.995 879.434 346.701 879.832 347.347 C 881.605 350.178 884.666 351.946 888.004 352.068 C 888.325 352.106 888.621 351.889 888.68 351.572 C 888.728 351.249 888.506 350.947 888.184 350.896 L 888.184 350.896 Z" fill="#fff" transform="matrix(1, 0, 0, 1, -1.1368683772161603e-13, 0)"/>
    <path d="M 283.114 313.394 C 279.485 311.21 278.712 306.277 281.5 303.088 L 269.519 282.089 L 282.056 282.899 L 291.511 302.715 C 295.238 306.435 293.54 312.795 288.455 314.162 C 286.645 314.649 284.714 314.371 283.114 313.394 Z" fill="#ffb6b6" transform="matrix(1, 0, 0, 1, -1.1368683772161603e-13, 0)"/>
    <polygon points="190.885 456.547 199.18 456.547 203.126 424.554 190.884 424.555 190.885 456.547" fill="#ffb6b6" transform="matrix(1, 0, 0, 1, -1.1368683772161603e-13, 0)"/>
    <path d="M 188.77 453.839 L 205.105 453.839 L 205.105 453.839 C 210.854 453.839 215.515 458.499 215.515 464.248 L 215.515 464.586 L 188.77 464.587 L 188.77 453.839 Z" fill="#2f2e41" transform="matrix(1, 0, 0, 1, -1.1368683772161603e-13, 0)"/>
    <polygon points="247.716 456.547 256.01 456.547 259.956 424.554 247.714 424.555 247.716 456.547" fill="#ffb6b6" transform="matrix(1, 0, 0, 1, -1.1368683772161603e-13, 0)"/>
    <path d="M 245.6 453.839 L 261.935 453.839 L 261.935 453.839 C 267.684 453.839 272.345 458.499 272.345 464.248 L 272.345 464.586 L 245.601 464.587 L 245.6 453.839 Z" fill="#2f2e41" transform="matrix(1, 0, 0, 1, -1.1368683772161603e-13, 0)"/>
    <path d="M 269.044 282.991 C 269.044 282.991 271.326 315.48 266.832 331.842 C 262.339 348.204 261.537 447.154 261.537 447.154 L 246.475 447.154 L 233.421 312.463 L 203.327 447.629 L 188.981 446.642 L 196.849 287.367 L 269.044 282.991 Z" style="fill: rgb(111, 109, 139);" transform="matrix(1, 0, 0, 1, -1.1368683772161603e-13, 0)"/>
    <path d="M 203.073 173.473 L 214.586 165.071 L 233.88 169.272 L 239.102 181.681 L 248.101 186.143 C 254.108 189.121 258.268 194.86 259.229 201.495 L 272.085 290.276 L 196.849 287.367 L 187.74 182.811 C 187.34 178.209 190.819 174.185 195.431 173.917 L 203.073 173.473 Z" style="fill: rgb(82, 80, 106);" transform="matrix(1, 0, 0, 1, -1.1368683772161603e-13, 0)"/>
    <polygon points="252.862 193.078 259.811 202.445 290.077 294.757 275.89 300.437 253.173 257.422 252.862 193.078" style="fill: rgb(78, 75, 102);" transform="matrix(1, 0, 0, 1, -1.1368683772161603e-13, 0)"/>
    <circle cx="227.673" cy="143.88" r="16.804" fill="#ffb9b9" transform="matrix(1, 0, 0, 1, -1.1368683772161603e-13, 0)"/>
    <polygon points="191.04 213.016 218.462 251.156 249.114 271.144 191.04 213.016" opacity="0.1" transform="matrix(1, 0, 0, 1, -1.1368683772161603e-13, 0)"/>
    <path d="M 218.768 156.028 C 217.599 153.694 216.396 151.154 216.843 148.583 C 217.29 146.011 220.241 143.77 222.519 145.045 C 223.463 141.63 227.647 140.136 231.168 140.53 C 234.689 140.924 237.931 142.623 241.399 143.352 C 244.866 144.081 249.077 143.503 250.951 140.495 L 246.467 140.418 L 251.137 135.002 L 245.724 134.597 C 247.599 132.574 247.101 129.136 245.286 127.059 C 243.471 124.981 240.717 123.999 238.029 123.377 C 232.664 122.14 227.103 122.012 221.687 123.001 C 219.133 123.395 216.672 124.251 214.426 125.528 C 212.31 126.818 210.563 128.631 209.35 130.792 C 208.042 133.23 207.335 135.945 207.288 138.711 C 207.125 146.241 210.801 153.337 217.045 157.548" style="fill: rgb(187, 174, 139);" transform="matrix(1, 0, 0, 1, -1.1368683772161603e-13, 0)"/>
    <path d="M 844.435 465.019 L 322.947 465.019 C 311.765 465.006 302.703 455.945 302.69 444.763 L 302.69 53.275 C 302.703 42.093 311.765 33.031 322.947 33.019 L 844.435 33.019 C 855.617 33.032 864.678 42.093 864.691 53.275 L 864.691 444.763 C 864.678 455.945 855.617 465.006 844.435 465.019 Z" fill="#e4e4e4" transform="matrix(1, 0, 0, 1, -1.1368683772161603e-13, 0)"/>
    <path d="M 713.187 212.769 L 632.686 212.769 C 621.139 212.769 613.923 200.269 619.696 190.269 C 622.376 185.628 627.327 182.769 632.686 182.769 L 713.187 182.769 C 724.734 182.769 731.951 195.269 726.177 205.269 C 723.498 209.91 718.546 212.769 713.187 212.769 Z" fill="#fff" transform="matrix(1, 0, 0, 1, -1.1368683772161603e-13, 0)"/>
    <path d="M 642.687 253.769 L 623.687 253.769 C 619.453 253.769 616.806 249.185 618.923 245.519 C 619.906 243.817 621.722 242.769 623.687 242.769 L 642.687 242.769 C 646.92 242.769 649.567 247.352 647.45 251.019 C 646.467 252.72 644.651 253.769 642.687 253.769 Z" fill="#fff" transform="matrix(1, 0, 0, 1, -1.1368683772161603e-13, 0)"/>
    <path d="M 721.687 253.769 L 702.687 253.769 C 698.453 253.769 695.806 249.185 697.923 245.519 C 698.906 243.817 700.722 242.769 702.687 242.769 L 721.687 242.769 C 725.92 242.769 728.567 247.352 726.45 251.019 C 725.467 252.72 723.651 253.769 721.687 253.769 Z" fill="#fff" transform="matrix(1, 0, 0, 1, -1.1368683772161603e-13, 0)"/>
    <path d="M 681.687 253.769 L 662.687 253.769 C 658.453 253.769 655.806 249.185 657.923 245.519 C 658.906 243.817 660.722 242.769 662.687 242.769 L 681.687 242.769 C 685.92 242.769 688.567 247.352 686.45 251.019 C 685.467 252.72 683.651 253.769 681.687 253.769 Z" fill="#fff" transform="matrix(1, 0, 0, 1, -1.1368683772161603e-13, 0)"/>
    <path d="M 642.687 274.769 L 623.687 274.769 C 619.453 274.769 616.806 270.185 618.923 266.519 C 619.906 264.817 621.722 263.769 623.687 263.769 L 642.687 263.769 C 646.92 263.769 649.567 268.352 647.45 272.019 C 646.467 273.72 644.651 274.769 642.687 274.769 Z" fill="#fff" transform="matrix(1, 0, 0, 1, -1.1368683772161603e-13, 0)"/>
    <path d="M 721.687 274.769 L 702.687 274.769 C 698.453 274.769 695.806 270.185 697.923 266.519 C 698.906 264.817 700.722 263.769 702.687 263.769 L 721.687 263.769 C 725.92 263.769 728.567 268.352 726.45 272.019 C 725.467 273.72 723.651 274.769 721.687 274.769 Z" fill="#fff" transform="matrix(1, 0, 0, 1, -1.1368683772161603e-13, 0)"/>
    <path d="M 681.687 274.769 L 662.687 274.769 C 658.453 274.769 655.806 270.185 657.923 266.519 C 658.906 264.817 660.722 263.769 662.687 263.769 L 681.687 263.769 C 685.92 263.769 688.567 268.352 686.45 272.019 C 685.467 273.72 683.651 274.769 681.687 274.769 Z" fill="#fff" transform="matrix(1, 0, 0, 1, -1.1368683772161603e-13, 0)"/>
    <path d="M 642.687 295.769 L 623.687 295.769 C 619.453 295.769 616.806 291.185 618.923 287.519 C 619.906 285.817 621.722 284.769 623.687 284.769 L 642.687 284.769 C 646.92 284.769 649.567 289.352 647.45 293.019 C 646.467 294.72 644.651 295.769 642.687 295.769 Z" fill="#fff" transform="matrix(1, 0, 0, 1, -1.1368683772161603e-13, 0)"/>
    <path d="M 721.687 295.769 L 702.687 295.769 C 698.453 295.769 695.806 291.185 697.923 287.519 C 698.906 285.817 700.722 284.769 702.687 284.769 L 721.687 284.769 C 725.92 284.769 728.567 289.352 726.45 293.019 C 725.467 294.72 723.651 295.769 721.687 295.769 Z" fill="#fff" transform="matrix(1, 0, 0, 1, -1.1368683772161603e-13, 0)"/>
    <path d="M 681.687 295.769 L 662.687 295.769 C 658.453 295.769 655.806 291.185 657.923 287.519 C 658.906 285.817 660.722 284.769 662.687 284.769 L 681.687 284.769 C 685.92 284.769 688.567 289.352 686.45 293.019 C 685.467 294.72 683.651 295.769 681.687 295.769 Z" fill="#fff" transform="matrix(1, 0, 0, 1, -1.1368683772161603e-13, 0)"/>
    <path d="M 642.687 316.769 L 623.687 316.769 C 619.453 316.769 616.806 312.185 618.923 308.519 C 619.906 306.817 621.722 305.769 623.687 305.769 L 642.687 305.769 C 646.92 305.769 649.567 310.352 647.45 314.019 C 646.467 315.72 644.651 316.769 642.687 316.769 Z" fill="#fff" transform="matrix(1, 0, 0, 1, -1.1368683772161603e-13, 0)"/>
    <path d="M 721.687 316.769 L 702.687 316.769 C 698.453 316.769 695.806 312.185 697.923 308.519 C 698.906 306.817 700.722 305.769 702.687 305.769 L 721.687 305.769 C 725.92 305.769 728.567 310.352 726.45 314.019 C 725.467 315.72 723.651 316.769 721.687 316.769 Z" fill="#fff" transform="matrix(1, 0, 0, 1, -1.1368683772161603e-13, 0)"/>
    <path d="M 681.687 316.769 L 662.687 316.769 C 658.453 316.769 655.806 312.185 657.923 308.519 C 658.906 306.817 660.722 305.769 662.687 305.769 L 681.687 305.769 C 685.92 305.769 688.567 310.352 686.45 314.019 C 685.467 315.72 683.651 316.769 681.687 316.769 Z" fill="#fff" transform="matrix(1, 0, 0, 1, -1.1368683772161603e-13, 0)"/>
    <circle cx="514.186" cy="243.769" r="51" fill="#cacaca" transform="matrix(1, 0, 0, 1, -1.1368683772161603e-13, 0)"/>
    <path d="M 514.187 306.269 C 505.906 306.259 499.196 299.549 499.187 291.269 L 499.187 196.269 C 499.177 184.722 511.671 177.495 521.676 183.26 C 526.327 185.94 529.191 190.901 529.186 196.269 L 529.186 291.269 C 529.177 299.549 522.467 306.259 514.187 306.269 Z" fill="#fff" transform="matrix(1, 0, 0, 1, -1.1368683772161603e-13, 0)"/>
    <path d="M 647.423 206.328 L 633.423 206.328 C 631.883 206.328 630.921 204.661 631.691 203.328 C 632.048 202.709 632.708 202.328 633.423 202.328 L 647.423 202.328 C 648.962 202.328 649.925 203.994 649.155 205.328 C 648.798 205.947 648.137 206.328 647.423 206.328 Z" fill="#e4e4e4" transform="matrix(1, 0, 0, 1, -1.1368683772161603e-13, 0)"/>
    <path d="M 669.423 206.828 L 655.423 206.828 C 653.883 206.828 652.921 205.161 653.691 203.828 C 654.048 203.209 654.708 202.828 655.423 202.828 L 669.423 202.828 C 670.962 202.828 671.925 204.494 671.155 205.828 C 670.798 206.447 670.137 206.828 669.423 206.828 Z" fill="#e4e4e4" transform="matrix(1, 0, 0, 1, -1.1368683772161603e-13, 0)"/>
    <path d="M 691.423 207.328 L 677.423 207.328 C 675.883 207.328 674.921 205.661 675.691 204.328 C 676.048 203.709 676.708 203.328 677.423 203.328 L 691.423 203.328 C 692.962 203.328 693.925 204.994 693.155 206.328 C 692.798 206.947 692.137 207.328 691.423 207.328 Z" fill="#e4e4e4" transform="matrix(1, 0, 0, 1, -1.1368683772161603e-13, 0)"/>
    <path d="M 713.423 207.828 L 699.423 207.828 C 697.883 207.828 696.921 206.161 697.691 204.828 C 698.048 204.209 698.708 203.828 699.423 203.828 L 713.423 203.828 C 714.962 203.828 715.925 205.494 715.155 206.828 C 714.798 207.447 714.137 207.828 713.423 207.828 Z" fill="#e4e4e4" transform="matrix(1, 0, 0, 1, -1.1368683772161603e-13, 0)"/>
    <path d="M 369.186 403.268 C 369.184 408.27 371.187 413.064 374.747 416.578 L 366.486 416.578 C 356.236 416.578 347.927 408.269 347.927 398.019 L 347.927 97.137 C 347.927 86.887 356.236 78.578 366.486 78.578 L 378.507 78.578 C 372.737 81.933 369.187 88.104 369.186 94.778 L 369.186 403.268 Z" fill="#cacaca" transform="matrix(1, 0, 0, 1, -1.1368683772161603e-13, 0)"/>
    <path d="M 978.747 466.981 L 40.453 466.981 C 39.536 466.978 38.966 465.985 39.427 465.192 C 39.639 464.826 40.03 464.601 40.453 464.6 L 978.747 464.6 C 979.664 464.6 980.236 465.592 979.778 466.386 C 979.565 466.754 979.172 466.981 978.747 466.981 Z" fill="#cacaca" transform="matrix(1, 0, 0, 1, -1.1368683772161603e-13, 0)"/>
    <path d="M 367.186 166.498 C 360.867 164.728 354.523 163.088 348.157 161.578 C 326.385 156.381 304.313 152.533 282.067 150.058 C 274.218 147.991 266.171 152.637 264.037 160.468 L 252.927 201.468 C 250.803 209.337 255.452 217.44 263.317 219.578 L 263.467 219.608 C 278.167 221.278 293.007 223.598 307.767 226.558 C 309.087 226.818 310.397 227.088 311.717 227.368 C 316.447 228.348 321.163 229.394 325.867 230.508 C 327.927 230.988 329.976 231.488 332.037 231.998 C 337.577 233.378 343.12 234.848 348.667 236.408 C 354.837 238.148 361.01 240.004 367.186 241.978 C 367.857 242.178 368.527 242.388 369.186 242.608 L 369.186 167.068 C 368.527 166.868 367.857 166.678 367.186 166.498 Z" fill="#fff" transform="matrix(1, 0, 0, 1, -1.1368683772161603e-13, 0)"/>
    <path d="M 367.186 166.498 C 360.867 164.728 354.523 163.088 348.157 161.578 C 326.385 156.381 304.313 152.533 282.067 150.058 C 274.218 147.991 266.171 152.637 264.037 160.468 L 252.927 201.468 C 250.803 209.337 255.452 217.44 263.317 219.578 L 263.467 219.608 C 278.167 221.278 293.007 223.598 307.767 226.558 C 309.087 226.818 310.397 227.088 311.717 227.368 C 316.447 228.348 321.163 229.394 325.867 230.508 C 327.927 230.988 329.976 231.488 332.037 231.998 C 337.577 233.378 343.12 234.848 348.667 236.408 C 354.837 238.148 361.01 240.004 367.186 241.978 C 367.857 242.178 368.527 242.388 369.186 242.608 L 369.186 240.498 C 368.517 240.288 367.847 240.078 367.186 239.868 C 361.507 238.058 355.834 236.354 350.167 234.758 C 348.047 234.148 345.927 233.558 343.807 232.988 C 339.987 231.958 336.177 230.971 332.377 230.028 C 330.357 229.518 328.34 229.028 326.327 228.558 C 326.177 228.518 326.017 228.488 325.867 228.448 C 322.436 227.638 319 226.864 315.557 226.128 C 314.237 225.848 312.917 225.568 311.597 225.298 C 295.677 221.998 279.637 219.428 263.766 217.628 C 257.01 215.746 253.033 208.77 254.857 201.998 L 265.967 160.988 C 267.817 154.194 274.819 150.18 281.617 152.018 L 281.766 152.038 C 303.73 154.477 325.525 158.257 347.027 163.358 C 347.246 163.418 347.467 163.468 347.686 163.518 C 354.207 165.078 360.707 166.764 367.186 168.578 C 367.847 168.758 368.516 168.948 369.186 169.148 L 369.186 167.068 C 368.527 166.868 367.857 166.678 367.186 166.498 Z" fill="#9fe88d" transform="matrix(1, 0, 0, 1, -1.1368683772161603e-13, 0)"/>
    <path d="M 369.186 168.108 L 369.186 241.548 C 368.517 241.328 367.857 241.118 367.186 240.908 C 361.277 239.018 355.347 237.238 349.397 235.568 C 343.686 233.948 337.956 232.424 332.207 230.998 C 330.167 230.498 328.137 230.008 326.097 229.528 C 326.017 229.168 325.936 228.808 325.867 228.448 C 325.496 226.728 325.207 224.988 324.987 223.238 C 324.887 222.568 324.817 221.898 324.746 221.218 C 322.613 199.494 330.874 178.04 347.027 163.358 C 347.317 163.078 347.617 162.808 347.917 162.548 C 354.377 164.088 360.8 165.754 367.186 167.548 C 367.857 167.718 368.527 167.908 369.186 168.108 Z" fill="#9fe88d" transform="matrix(1, 0, 0, 1, -1.1368683772161603e-13, 0)"/>
    <path d="M 302.777 198.178 L 274.967 194.898 C 269.232 194.22 264.914 200.005 267.195 205.311 C 268.254 207.773 270.545 209.483 273.207 209.798 L 301.017 213.078 C 306.753 213.741 311.057 207.946 308.763 202.646 C 307.704 200.198 305.425 198.497 302.777 198.178 L 302.777 198.178 Z M 307.357 206.278 C 306.994 209.291 304.261 211.443 301.247 211.088 L 273.436 207.808 C 269.235 207.296 267.163 202.429 269.706 199.046 C 270.879 197.487 272.789 196.666 274.726 196.888 L 302.536 200.168 C 305.55 200.533 307.703 203.262 307.357 206.278 L 307.357 206.278 Z" fill="#9fe88d" transform="matrix(1, 0, 0, 1, -1.1368683772161603e-13, 0)"/>
    <path d="M 369.186 185.308 L 369.186 220.138 C 368.544 220.523 367.876 220.864 367.186 221.158 C 359.851 224.433 351.272 223.042 345.347 217.618 C 345.067 217.368 344.787 217.098 344.517 216.818 C 344.247 216.548 343.987 216.258 343.737 215.968 C 333.533 204.248 339.843 185.877 355.095 182.9 C 359.171 182.104 363.394 182.586 367.186 184.278 C 367.871 184.585 368.539 184.929 369.186 185.308 Z" fill="#fff" transform="matrix(1, 0, 0, 1, -1.1368683772161603e-13, 0)"/>
    <path d="M 367.186 210.518 C 359.317 212.158 351.5 213.974 343.737 215.968 C 340.837 216.708 337.947 217.474 335.067 218.268 C 331.627 219.218 328.187 220.201 324.747 221.218 C 320.357 222.518 315.974 223.878 311.597 225.298 C 310.327 225.718 309.047 226.138 307.767 226.558 C 295.597 230.618 283.507 235.118 271.617 240.028 C 263.741 241.996 258.925 249.946 260.827 257.838 L 270.857 299.118 C 272.79 307.034 280.766 311.892 288.686 309.978 L 288.827 309.928 C 308.38 301.908 328.392 295.056 348.757 289.408 C 354.837 287.718 360.98 286.125 367.186 284.628 C 367.857 284.468 368.517 284.308 369.186 284.158 L 369.186 210.108 C 368.517 210.228 367.857 210.368 367.186 210.518 Z" fill="#fff" transform="matrix(1, 0, 0, 1, -1.1368683772161603e-13, 0)"/>
    <path d="M 367.186 210.518 C 359.317 212.158 351.5 213.974 343.737 215.968 C 340.837 216.708 337.947 217.474 335.067 218.268 C 331.627 219.218 328.187 220.201 324.747 221.218 C 320.357 222.518 315.974 223.878 311.597 225.298 C 310.327 225.718 309.047 226.138 307.767 226.558 C 295.597 230.618 283.507 235.118 271.617 240.028 C 263.741 241.996 258.925 249.946 260.827 257.838 L 270.857 299.118 C 272.79 307.034 280.766 311.892 288.686 309.978 L 288.827 309.928 C 308.38 301.908 328.392 295.056 348.757 289.408 C 354.837 287.718 360.98 286.125 367.186 284.628 C 367.857 284.468 368.517 284.308 369.186 284.158 L 369.186 282.098 C 368.517 282.258 367.857 282.418 367.186 282.578 C 366.686 282.698 366.177 282.818 365.677 282.938 C 359.797 284.368 353.98 285.881 348.227 287.478 C 348.077 287.518 347.917 287.568 347.767 287.608 C 327.504 293.243 307.593 300.072 288.137 308.058 C 281.308 309.659 274.464 305.46 272.797 298.648 L 262.777 257.368 C 261.121 250.524 265.317 243.631 272.157 241.958 L 272.307 241.908 C 285.257 236.548 298.436 231.688 311.717 227.368 C 312.997 226.948 314.277 226.538 315.557 226.128 C 318.697 225.138 321.84 224.175 324.987 223.238 C 328.307 222.248 331.623 221.295 334.936 220.378 C 335.157 220.318 335.377 220.258 335.597 220.198 C 338.837 219.308 342.087 218.448 345.347 217.618 C 352.577 215.778 359.857 214.088 367.186 212.548 C 367.847 212.408 368.517 212.268 369.186 212.138 L 369.186 210.108 C 368.517 210.228 367.857 210.368 367.186 210.518 Z" fill="#9fe88d" transform="matrix(1, 0, 0, 1, -1.1368683772161603e-13, 0)"/>
    <path d="M 369.186 211.118 L 369.186 283.128 C 368.527 283.278 367.857 283.428 367.186 283.588 C 360.927 285.108 354.693 286.728 348.487 288.448 C 348.237 288.168 347.997 287.888 347.767 287.608 C 334.654 272.258 328.907 251.942 332.037 231.998 C 332.087 231.668 332.147 231.328 332.207 230.998 C 332.257 230.678 332.317 230.348 332.377 230.028 C 332.994 226.753 333.85 223.528 334.936 220.378 C 335.067 219.998 335.197 219.618 335.337 219.238 C 338.387 218.398 341.447 217.591 344.517 216.818 C 352.027 214.878 359.583 213.114 367.186 211.528 C 367.847 211.378 368.517 211.248 369.186 211.118 Z" fill="#9fe88d" transform="matrix(1, 0, 0, 1, -1.1368683772161603e-13, 0)"/>
    <path d="M 322.717 276.348 C 321.156 272.513 316.785 270.666 312.947 272.218 L 286.997 282.738 C 281.65 284.917 280.667 292.067 285.228 295.608 C 287.338 297.246 290.16 297.638 292.637 296.638 L 318.587 286.118 C 322.418 284.553 324.264 280.186 322.717 276.348 Z M 317.837 284.258 L 291.887 294.788 C 287.958 296.376 283.784 293.116 284.373 288.92 C 284.645 286.978 285.931 285.328 287.747 284.588 L 313.697 274.068 C 317.619 272.474 321.795 275.724 321.214 279.918 C 320.945 281.864 319.657 283.518 317.837 284.258 Z" fill="#9fe88d" transform="matrix(1, 0, 0, 1, -1.1368683772161603e-13, 0)"/>
    <path d="M 369.186 229.508 L 369.186 268.718 C 368.527 268.886 367.86 269.019 367.186 269.118 C 351.783 271.277 339.819 255.951 345.651 241.532 C 346.398 239.684 347.414 237.958 348.667 236.408 C 348.897 236.118 349.137 235.838 349.397 235.568 C 349.637 235.288 349.897 235.018 350.167 234.758 C 354.649 230.325 360.944 228.239 367.186 229.118 C 367.86 229.208 368.528 229.338 369.186 229.508 Z" fill="#fff" transform="matrix(1, 0, 0, 1, -1.1368683772161603e-13, 0)"/>
    <path d="M 367.186 161.288 L 367.186 261.098 C 367.857 260.878 368.527 260.668 369.186 260.468 L 369.186 162.198 C 368.517 161.888 367.857 161.588 367.186 161.288 Z M 367.186 161.288 L 367.186 261.098 C 367.857 260.878 368.527 260.668 369.186 260.468 L 369.186 162.198 C 368.517 161.888 367.857 161.588 367.186 161.288 Z M 367.186 161.288 L 367.186 261.098 C 367.857 260.878 368.527 260.668 369.186 260.468 L 369.186 162.198 C 368.517 161.888 367.857 161.588 367.186 161.288 Z M 367.186 168.578 L 367.186 283.588 C 367.857 283.428 368.527 283.278 369.186 283.128 L 369.186 169.148 C 368.517 168.948 367.847 168.758 367.186 168.578 L 367.186 168.578 Z M 367.186 168.578 L 367.186 283.588 C 367.857 283.428 368.527 283.278 369.186 283.128 L 369.186 169.148 C 368.517 168.948 367.847 168.758 367.186 168.578 L 367.186 168.578 Z M 367.186 168.578 L 367.186 283.588 C 367.857 283.428 368.527 283.278 369.186 283.128 L 369.186 169.148 C 368.517 168.948 367.847 168.758 367.186 168.578 L 367.186 168.578 Z M 367.186 168.578 L 367.186 283.588 C 367.857 283.428 368.527 283.278 369.186 283.128 L 369.186 169.148 C 368.517 168.948 367.847 168.758 367.186 168.578 L 367.186 168.578 Z M 367.186 168.578 L 367.186 284.628 C 367.857 284.468 368.517 284.308 369.186 284.158 L 369.186 169.148 C 368.517 168.948 367.847 168.758 367.186 168.578 L 367.186 168.578 Z M 803.436 74.018 L 387.947 74.018 C 376.489 74.037 367.206 83.32 367.186 94.778 L 367.186 403.268 C 367.206 414.724 376.491 424.004 387.947 424.018 L 803.436 424.018 C 814.891 424.004 824.173 414.722 824.186 403.268 L 824.186 94.778 C 824.177 83.32 814.894 74.033 803.436 74.018 L 803.436 74.018 Z M 822.186 403.268 C 822.176 413.619 813.787 422.007 803.436 422.018 L 387.947 422.018 C 377.594 422.008 369.202 413.621 369.186 403.268 L 369.186 94.778 C 369.202 84.423 377.592 76.033 387.947 76.018 L 803.436 76.018 C 813.791 76.03 822.18 84.423 822.186 94.778 L 822.186 403.268 Z M 367.186 168.578 L 367.186 282.578 C 367.857 282.418 368.517 282.258 369.186 282.098 L 369.186 169.148 C 368.517 168.948 367.847 168.758 367.186 168.578 L 367.186 168.578 Z M 367.186 168.578 L 367.186 283.588 C 367.857 283.428 368.527 283.278 369.186 283.128 L 369.186 169.148 C 368.517 168.948 367.847 168.758 367.186 168.578 L 367.186 168.578 Z M 367.186 168.578 L 367.186 283.588 C 367.857 283.428 368.527 283.278 369.186 283.128 L 369.186 169.148 C 368.517 168.948 367.847 168.758 367.186 168.578 L 367.186 168.578 Z M 367.186 168.578 L 367.186 283.588 C 367.857 283.428 368.527 283.278 369.186 283.128 L 369.186 169.148 C 368.517 168.948 367.847 168.758 367.186 168.578 L 367.186 168.578 Z M 367.186 161.288 L 367.186 261.098 C 367.857 260.878 368.527 260.668 369.186 260.468 L 369.186 162.198 C 368.517 161.888 367.857 161.588 367.186 161.288 L 367.186 161.288 Z M 367.186 161.288 L 367.186 261.098 C 367.857 260.878 368.527 260.668 369.186 260.468 L 369.186 162.198 C 368.517 161.888 367.857 161.588 367.186 161.288 L 367.186 161.288 Z" fill="#2f2e41" transform="matrix(1, 0, 0, 1, -1.1368683772161603e-13, 0)"/>
    <path d="M 278.113 266.893 C 276.443 263 271.661 261.563 268.122 263.89 L 248.952 249.159 L 248.046 261.69 L 266.389 273.757 C 269.567 277.956 276.098 277.14 278.146 272.289 C 278.875 270.562 278.863 268.611 278.113 266.893 L 278.113 266.893 Z" fill="#ffb6b6" transform="matrix(1, 0, 0, 1, -1.1368683772161603e-13, 0)"/>
    <path d="M 200.862 177.995 L 194.553 175.014 C 194.553 175.014 184.391 177.873 189.328 191.311 L 219.207 246.975 L 255.686 268.332 L 267.058 258.255 L 230.553 229.37 L 200.862 177.995 Z" style="fill: rgb(78, 75, 102);" transform="matrix(1, 0, 0, 1, -1.1368683772161603e-13, 0)"/>
</svg>